<svg xmlns="http://www.w3.org/2000/svg" viewBox="0 0 1012 272"><g fill="#090909"><path d="M331.27 63.77c32.09-.05 64.17-.01 96.25-.02-2.3 6.26-4.56 12.54-6.89 18.79-32.07.01-64.13-.03-96.2.02 2.23-6.28 4.56-12.53 6.84-18.79ZM320.95 92.07c32.08.03 64.16-.07 96.24.05-2.4 6.31-4.63 12.67-6.99 18.99-32.07-.02-64.15.01-96.22-.02 2.35-6.33 4.58-12.7 6.97-19.02ZM447.99 92.51c14.01.02 28.03-.07 42.04.05 8.52.01 17.34 1.92 24.25 7.14 13.1 9.6 13.88 31.61 1.58 42.18-2.32 2.17-5.1 3.75-7.92 5.18 7.96 3.32 15.75 8.76 18.81 17.17 3.15 9.04 2.64 19.41-1.46 28.07-3.52 7.38-10.49 12.82-18.35 14.92-6.49 1.86-13.31 1.65-19.99 1.72-12.99-.02-25.98 0-38.97-.01 0-38.81-.01-77.61.01-116.42m22.97 19.11c0 9.11-.01 18.22.01 27.33 5.68-.02 11.36.06 17.05-.03 4.56.14 9.21-2.4 11.2-6.58 2.14-4.52 2.15-10.06-.06-14.55-2.09-4.06-6.86-5.82-11.19-6.06-5.66-.26-11.34-.07-17.01-.11m.17 47.51c-.01 10.2.01 20.41-.01 30.62 7.61-.3 15.3.57 22.85-.55 13.3-2.8 13.81-25.26.98-29.11-7.81-1.77-15.9-.68-23.82-.96ZM530.17 92.51c30.93-.01 61.86-.02 92.78.01-2.17 6.44-4.41 12.87-6.5 19.35-9.88.15-19.77 0-29.65.07-.02 32.33-.01 64.66-.01 96.99-7.72.01-15.44-.01-23.16.01-.01-32.3-.02-64.6 0-96.9-11.15-.27-22.3-.02-33.45-.12-.01-6.47 0-12.94-.01-19.41ZM630.14 92.54c25.06-.08 50.12-.04 75.18-.02-2.11 6.48-4.37 12.9-6.49 19.37-15.21.1-30.41-.01-45.62.06-.07 8.6-.01 17.21-.03 25.82 11.91.34 24.14-1.22 35.74 2.23 9.18 2.69 16.75 9.96 19.98 18.94 3.17 8.84 3.35 18.76.49 27.7-2.83 8.81-9.75 16.25-18.46 19.45-7 2.61-14.6 2.66-21.97 2.83-12.93.03-25.87.01-38.8.01 0-38.8.04-77.59-.02-116.39m23.05 64.34c-.04 10.83.04 21.66-.05 32.49 7.92-.18 15.96.75 23.78-.69 7.72-1.69 11.32-10.41 10.36-17.64-.18-6.71-5.35-13.04-12.14-13.78-7.29-.78-14.64-.21-21.95-.38ZM303.54 139.34c2.61-6.17 4.56-12.6 7.09-18.8 32.04.12 64.08.03 96.12.04-2.29 6.35-4.59 12.69-6.94 19.02-28.94-.07-57.89 0-86.84-.03-3.14-.03-6.3.18-9.43-.23Z"/></g></svg>
