<svg width="253" height="68" viewBox="0 0 253 68" fill="none" xmlns="http://www.w3.org/2000/svg">
<g clip-path="url(#clip0_18425_35387)">
<path d="M118.386 21.1723L109.711 43.8253H114.371L116.154 39.0922H125.359L127.15 43.8253H131.775L123.154 21.1723H118.386ZM117.753 34.9348L120.784 26.9646L123.802 34.9348H117.753ZM137.345 37.9838L133.583 27.9117H129.137L135.197 43.8243H139.604L145.556 27.9117H141.111L137.345 37.9838ZM151.148 27.9117H146.917V43.8243H151.148V27.9117ZM149.03 26.7653C150.733 26.7653 152.114 25.3846 152.114 23.6815C152.114 21.9783 150.733 20.5977 149.03 20.5977C147.327 20.5977 145.946 21.9783 145.946 23.6815C145.946 25.3846 147.327 26.7653 149.03 26.7653ZM159.532 23.6653H155.314V27.8839H152.839V31.7189H155.314V38.4815C155.314 42.3165 157.427 43.9661 160.403 43.9661C161.408 43.9792 162.404 43.7845 163.329 43.3943V39.4518C162.824 39.6372 162.291 39.7336 161.754 39.7391C160.461 39.7391 159.529 39.2368 159.529 37.5149V31.7198H163.329V27.9228H159.532V23.6662V23.6653ZM172.223 27.6226C167.669 27.6205 163.975 31.3109 163.973 35.8652C163.971 40.4196 167.662 44.1133 172.216 44.1153C176.736 44.0695 180.377 40.3934 180.379 35.8731C180.381 31.3528 176.743 27.6725 172.223 27.6226ZM172.223 39.8967C170.599 39.8982 169.133 38.9207 168.511 37.4203C167.888 35.9199 168.231 34.192 169.379 33.0428C170.527 31.8935 172.254 31.5493 173.755 32.1706C175.257 32.792 176.235 34.2565 176.235 35.881C176.232 38.0933 174.436 39.884 172.223 39.8809V39.8967Z" fill="black"/>
<path d="M89.8159 28.5165C91.5177 28.5165 92.8974 27.1369 92.8974 25.435C92.8974 23.7332 91.5177 22.3535 89.8159 22.3535C88.114 22.3535 86.7344 23.7332 86.7344 25.435C86.7344 27.1369 88.114 28.5165 89.8159 28.5165Z" fill="black"/>
<path d="M100.611 34.0119C104.315 34.0119 107.317 31.0099 107.317 27.3067C107.317 23.6036 104.315 20.6016 100.611 20.6016C96.9083 20.6016 93.9062 23.6036 93.9062 27.3067C93.9062 31.0099 96.9083 34.0119 100.611 34.0119Z" fill="black"/>
<path d="M88.2404 46.0844C92.7958 46.0844 96.4887 42.3915 96.4887 37.8361C96.4887 33.2808 92.7958 29.5879 88.2404 29.5879C83.6851 29.5879 79.9922 33.2808 79.9922 37.8361C79.9922 42.3915 83.6851 46.0844 88.2404 46.0844Z" fill="black"/>
<path d="M102.54 45.0409C105.291 45.0409 107.521 42.8106 107.521 40.0595C107.521 37.3084 105.291 35.0781 102.54 35.0781C99.7888 35.0781 97.5586 37.3084 97.5586 40.0595C97.5586 42.8106 99.7888 45.0409 102.54 45.0409Z" fill="black"/>
</g>
<defs>
<clipPath id="clip0_18425_35387">
<rect width="101" height="64" fill="white" transform="translate(80)"/>
</clipPath>
</defs>
</svg>
