<svg xmlns="http://www.w3.org/2000/svg" viewBox="0 0 1012 272"><path d="M494.55 65.71c4.87-2.36 11.64-.44 13.9 4.69 1.63 3 .61 6.4-.4 9.42 2.89.94 5.91.87 8.82.01-.97-2.77-1.96-5.81-.74-8.68 2-6.1 10.44-8.41 15.44-4.59 4.62 3.95 4.37 12-.3 15.81-4.99 4.27-12.01 4.61-18.27 4.79-6.6-.15-13.97-.42-19.29-4.83-5.09-4.11-4.8-13.13.84-16.62ZM385.29 98.38c12.85-7.23 29.01-8.16 42.62-2.49 11.46 4.68 21.03 13.71 26.55 24.77 7.69 14.87 7.88 33.33.65 48.42-6.03 12.98-17.58 23.37-31.3 27.59-11.25 3.58-23.74 2.78-34.52-1.97-14.08-6.23-24.91-19.05-29.09-33.83 6.84.03 13.68-.04 20.53.04 2.29 8.53 7 17.05 15.1 21.25 7.43 4.18 16.92 3.09 23.95-1.42 10.83-6.98 16.92-19.38 18.85-31.83-4.59 5.3-11.34 9.26-18.56 8.45-6.46-.12-10.64-5.56-15.45-9.05-3.49-2.78-8.1-4.75-12.58-3.42-4.38.96-7.61 4.21-11.32 6.46 2.08-5.09 5.41-9.58 8.85-13.82 4.18-5.07 10.83-8.68 17.53-7.27 8.06 1.52 13.24 8.49 19.92 12.58 2.46 1.4 5.56 2.78 8.35 1.5 2.52-.92 3.93-3.76 3.55-6.36-.79-10.55-5.05-21.67-14.1-27.8-6.49-4.57-15.31-5.1-22.48-1.83-9.16 4.12-15.65 12.63-19.35 21.76-7.61.02-15.21.04-22.82-.02 3.98-13.24 12.93-25.04 25.12-31.71ZM587.7 95.63c8.78-.05 17.56.07 26.34-.07-8.77 5.54-15.88 13.35-21.79 21.8-4.38 6.49-8.34 13.71-8.86 21.67-.3 4.7 1.87 10.34 6.83 11.65 6.09 1.66 12.61-.24 17.8-3.57 8.14-5.02 12.46-14.7 12.68-24.04.07-9.15.51-18.29.43-27.44 6.66-.02 13.33-.01 20 0 0 28.17-.01 56.33 0 84.5 3.53-.02 7.07 0 10.61.01.02 5.37.01 10.74.01 16.11-14.54.02-29.08-.02-43.62.02-.01-5.38-.01-10.76 0-16.14 4.37-.01 8.74-.01 13.12 0 .04-10.42-.09-20.83.07-31.24-4.91 9.47-14.2 16.26-24.36 19.14-7.69 2.25-16.22.3-22.62-4.36-7.52-5.61-11.59-15.34-10.46-24.64 1.66-16.99 11.94-31.73 23.82-43.4ZM464.36 111.76c.02-5.38 0-10.76.02-16.14 14.54.01 29.07 0 43.62 0 0 5.38 0 10.76-.01 16.13-3.91-.01-7.83 0-11.74 0 .02 14.34-.05 28.67.04 43 9.36-10.11 18.8-20.14 28.19-30.22 1.62-1.96 4.52-3.55 4.17-6.48.04-2.1-.03-4.21-.04-6.32-4 .02-8 .02-12 .02.02-5.37 0-10.74.02-16.12 14.54-.01 29.07-.01 43.61 0 .02 5.37.01 10.75.01 16.12-3.92-.01-7.83 0-11.74 0-.01 22.79-.01 45.58 0 68.37 3.95 0 7.9.01 11.86.01.01 5.37.01 10.74 0 16.11-14.59.04-29.17-.01-43.75.02 0-5.38-.01-10.76.01-16.13 4 .01 7.99-.01 11.99-.02 0-15.58.02-31.16-.01-46.74-10.73 11.32-21.35 22.75-31.97 34.16-.97 4.01-.12 8.41-.39 12.57 3.92.02 7.83.04 11.75.02v16.13c-14.55.01-29.09-.02-43.62.02-.01-5.39 0-10.77-.02-16.14 4 0 8-.01 12.01 0 .01-22.8 0-45.59 0-68.39-4 .01-8.01 0-12.01.02Z"/></svg>
