<svg xmlns="http://www.w3.org/2000/svg" viewBox="0 0 1012 272"><path d="M380.58 58.84c7.93-.09 15.86-.02 23.8.01.32 43.48.11 86.97.09 130.45 8.72.16 17.44.06 26.16.12.09 7.07.07 14.14.01 21.21-16.72.08-33.44-.05-50.16.02.02-50.6-.18-101.21.1-151.81ZM444.5 59.32c8.07-.09 16.14 0 24.21-.02-.08 50.44.04 100.87-.04 151.3-8.06.1-16.13 0-24.19.06-.05-50.45-.01-100.89.02-151.34ZM495.89 59.34c12.26-.14 24.52-.02 36.78-.04.01 31.59.04 63.18-.03 94.78-.38-.21-1.15-.63-1.53-.84-.7-2.17-1.39-4.34-2.06-6.51-.22-.44-.65-1.31-.87-1.75-9.4-24.64-18.69-49.35-28.38-73.88-1.52-3.84-2.78-7.78-3.91-11.76ZM558.17 59.27c8.05.03 16.09-.04 24.14.09-.04 50.4.04 100.8-.02 151.2-8.16.14-16.31.07-24.46.04.09-28.88-.06-57.76 0-86.65.21-21.56-.37-43.14.34-64.68ZM608.72 59.41c8.16-.25 16.31-.11 24.47-.06-.73 9.2.39 18.42-.23 27.63-.5 15.67.31 31.33.21 47-.62 17.67-.24 35.35-.32 53.03-.16 7.87.83 15.76-.08 23.61-8.02.01-16.04-.02-24.06-.01-.09-50.4-.14-100.8.01-151.2ZM493.66 115.47c2.9 1.91 3.35 5.46 4.56 8.43 6.99 17.04 13.69 34.19 20.6 51.25 3.06 7.9 6.29 15.73 9.44 23.59 1.68 3.89 3.05 7.89 4.6 11.83-13.09.18-26.19-.01-39.28.02-.2-31.7-.05-63.41.08-95.12Z"/></svg>
