<svg xmlns="http://www.w3.org/2000/svg" width="44" height="45" fill="none"><g clip-path="url(#a)"><mask id="b" width="44" height="45" x="0" y="0" maskUnits="userSpaceOnUse" style="mask-type:luminance"><path fill="#fff" d="M44 .32H0v44h44v-44Z"/></mask><g mask="url(#b)"><path fill="#101010" d="M44 .32H0v44h44v-44Z"/><path fill="#fff" d="M29.312 3.704V5.73h4.428v8.127h2.475V5.729h4.419V3.704H29.312ZM13.392 3.704l-3.24 6.714L6.92 3.704H3.384v10.152h2.484V6.593l3.159 6.138h2.259l3.159-6.138v7.263h2.474V3.704h-3.527ZM38.159 37.552c-.063.405-.225.738-.486.99-.243.234-.576.405-.99.504-.405.09-1.008.144-1.638.144-.657 0-1.233-.08-1.728-.252a2.121 2.121 0 0 1-1.116-.846c-.27-.396-.405-.971-.405-1.718v-1.035c0-.739.135-1.314.405-1.72.27-.395.639-.683 1.116-.845.486-.171 1.07-.252 1.728-.252.63 0 1.233.054 1.638.144.414.099.747.26.99.504.26.252.423.584.486.99h2.474c-.072-.837-.35-1.548-.845-2.124-.45-.522-1.08-.9-1.863-1.134-.756-.225-1.755-.342-2.88-.342-1.188 0-2.214.17-3.06.504a3.927 3.927 0 0 0-1.98 1.692c-.441.746-.666 1.755-.684 2.978v.117l.135.01-.135.009V35.986c.018 1.224.243 2.231.684 2.978a3.927 3.927 0 0 0 1.98 1.692c.846.333 1.872.504 3.06.504 1.125 0 2.124-.117 2.88-.342.783-.234 1.404-.612 1.863-1.134.495-.567.783-1.287.846-2.124h-2.475v-.009Z"/></g></g><defs><clipPath id="a"><path fill="#fff" d="M0 .32h44v44H0z"/></clipPath></defs></svg>
