<svg xmlns="http://www.w3.org/2000/svg" viewBox="0 0 1012 273"><path d="M422.49 79.55c11.45-1.94 24 .34 33.13 7.81 11.66 9.37 17.08 24.36 18.81 38.8 1.78 16.21.34 33.35-7.21 48.03-5.3 10.5-14.94 19.01-26.55 21.64-11.15 2.41-23.51 1.16-33.13-5.32-11.07-7.32-17.36-19.97-20.1-32.64-3.68-17.59-2.83-36.54 4.34-53.17 5.43-12.63 16.82-23.1 30.71-25.15m3.97 17.09c-6.24 3.47-8.55 10.85-10.33 17.31-3.22 14.1-3.33 28.86-1.01 43.11 1.27 6.77 3.09 13.81 7.56 19.23 2.67 3.35 7.61 5.07 11.56 2.9 5.06-2.92 7.51-8.65 9.18-13.98 3.69-12.33 3.95-25.41 3.04-38.15-.87-8.77-2.38-17.9-7.15-25.48-2.57-4.21-8.01-7.5-12.85-4.94ZM613.48 79.63c11.54-2.07 24.21.16 33.47 7.64 11.68 9.32 17.13 24.29 18.89 38.71 1.73 15.92.45 32.67-6.67 47.23-4.96 10.28-13.87 18.91-25 22.05-10.9 3-23.16 2.22-33.08-3.43-11-6.26-17.9-17.83-21.19-29.77-4.16-15.41-4.2-31.92-.24-47.37 2.91-10.84 8.53-21.46 17.76-28.18 4.7-3.55 10.27-5.85 16.06-6.88m4.84 16.83c-3.09 1.33-5.26 4.12-6.85 6.98-3.38 6.4-4.82 13.62-5.7 20.75-1.34 12.91-1.09 26.15 2.07 38.8 1.68 5.9 3.94 12.37 9.34 15.88 3.7 2.45 8.78 1.16 11.6-2.05 4.92-5.52 6.73-12.99 8.12-20.07 2-12.4 1.99-25.14.01-37.55-1.33-6.82-3.05-13.97-7.57-19.45-2.54-3.19-7.12-5.12-11.02-3.29ZM783.47 91.48c12.81-14.66 36.97-16.72 52.6-5.49 9.54 6.92 14.68 18.23 16.89 29.52-8.67 2.03-17.37 3.95-26.06 5.86-1.24-8.02-2.44-16.89-8.17-23.09-3.18-3.59-9.15-3.21-12.23.29-4.96 5.27-6.57 12.68-7.83 19.58-2.03 13.52-2 27.38.24 40.88 1.28 6.5 2.96 13.46 7.71 18.38 3.48 3.72 10.06 3.38 13.25-.57 5.3-6.11 6.75-14.43 8-22.16 8.5 1.25 16.99 2.55 25.47 3.92-2.05 11-6.06 22.38-14.9 29.77-16.27 13.44-43.73 11.14-56.65-5.93-11-14.2-13.41-33.06-12.65-50.51.9-14.37 4.51-29.45 14.33-40.45ZM81.74 81.12c6.86 0 13.73-.01 20.6 0 .05 11.61-.04 23.21.04 34.82 7.94-11.57 15.79-23.19 23.65-34.8 9.19-.01 18.38-.09 27.57.05-13.35 13.58-26.7 27.16-39.96 40.82 24.33-13.6 48.66-27.22 72.99-40.81.05 8.65.03 17.3.02 25.95-21.89 8.23-43.79 16.43-65.68 24.66 21.89-2.08 43.78-4.08 65.67-6.2a2540 2540 0 0 1-.01 24.69c-21.76-1.95-43.5-4.34-65.29-5.96 21.82 8 43.54 16.3 65.31 24.46.03 8.64-.01 17.28.02 25.92-24.38-13.56-48.69-27.23-73.05-40.8 13.28 13.66 26.67 27.2 39.97 40.84-9.2.01-18.39.01-27.58 0-7.91-11.58-15.7-23.25-23.64-34.8-.08 11.6-.01 23.2-.04 34.8-6.86.01-13.72.01-20.58 0-.02-37.88.02-75.76-.01-113.64ZM202.89 81.12c8.91-.01 17.83 0 26.75-.01-1.47 24.5-2.73 49.01-4.06 73.52 11.01-24.53 22.16-49 33.2-73.51 7.29 0 14.58-.02 21.87.01.01 37.87 0 75.74 0 113.61-8.88.02-17.75 0-26.63.01.99-24.47 2.8-48.9 3.84-73.37-11.03 24.47-22.04 48.96-33.2 73.37-7.26-.01-14.52.01-21.78-.01.01-37.87-.01-75.74.01-113.62ZM296.9 81.13c8.92-.01 17.84-.01 26.75-.01-.01 14.63 0 29.25 0 43.87 7.54.01 15.09.01 22.64 0 .01-14.62-.01-29.24 0-43.86 8.94 0 17.88-.06 26.82.03-.04 37.86.03 75.71-.03 113.56-8.93.07-17.87.01-26.8.03.01-17.3.01-34.59 0-51.89-7.54-.02-15.09-.01-22.63-.01-.02 17.3.02 34.59-.02 51.88-8.91.04-17.82.02-26.74.01.01-37.87-.01-75.74.01-113.61ZM487.43 81.13c25.68-.02 51.37 0 77.05-.01.01 37.88.01 75.75 0 113.63h-26.77c.02-31.93.01-63.85.01-95.77-7.84 0-15.67-.01-23.5.01-.01 31.91 0 63.83-.01 95.74-8.93.04-17.86.01-26.78.02.01-37.87.01-75.75 0-113.62ZM678.87 81.12c8.92-.01 17.84 0 26.76-.01-1.27 24.46-2.76 48.92-3.95 73.38 11.05-24.46 22.08-48.94 33.18-73.38 7.28.02 14.57 0 21.85.02 0 37.87.01 75.74-.01 113.61-8.88.02-17.77 0-26.65.01 1.09-24.43 2.84-48.83 3.78-73.27-10.92 24.46-22 48.85-33.09 73.24-7.29.06-14.59.02-21.88.02.01-37.87-.01-75.74.01-113.62ZM864.37 81.12c8.9 0 17.8-.01 26.7 0 .04 16.95-.02 33.9.03 50.86 7.39-16.9 14.59-33.89 21.83-50.85 9.16 0 18.32-.06 27.47.03-10.33 18.42-21.02 36.64-31.5 54.97 9.21 16.74 18.51 33.44 27.73 50.18 1.45 2.7 3.43 5.25 3.67 8.42-9.66.04-19.31 0-28.96.02-6.77-16.99-13.47-34-20.23-51-.04 17 0 34-.02 50.99-8.91.02-17.82 0-26.73.02.04-37.88.02-75.76.01-113.64Z"/></svg>
