<svg xmlns="http://www.w3.org/2000/svg" viewBox="0 0 1012 272"><g fill="#040811"><path d="M510.41 61.61c7.71-3.41 17.63.64 20.49 8.62 3.79 9.19-2.44 20.72-12.21 22.55-7.05 1.97-15.27-1.46-18.21-8.28-3.97-8.65 1.12-19.68 9.93-22.89ZM566.33 116.36c12.28-8.79 28.43-12.56 43.18-8.83 8.5 2.01 15.89 9.51 16.01 18.54.71 9.74-7.54 19.38-17.55 18.95-6.2.37-11.68-3.85-13.85-9.49 1.99-2.45 3.76-5.23 3.96-8.47.79-4.01-1.84-8.56-6.05-9.11-6.4-.71-12.46 2.88-16.71 7.38-8.08 8.82-11.25 21.01-11.88 32.69-.5 7.73.52 15.94 5.03 22.45 3.43 5.19 9.35 8.51 15.54 8.97 9.45.74 19.3-1.56 26.94-7.33 1.29 1.79 2.59 3.58 3.89 5.37-8.31 13.29-23.1 22.42-38.78 23.5-8 .55-16.38-.59-23.34-4.78-7.7-4.39-12.69-12.45-14.85-20.88-2.53-10.01-1.73-20.65 1.07-30.52 4.37-15.43 13.95-29.53 27.39-38.44ZM383.73 126.74c12.51-12.85 30.29-20.41 48.24-20.26 11.48.05 23.23 1.14 33.95 5.5-5.26 24.05-10.55 48.09-15.83 72.13-.39 1.79-.55 3.77.4 5.43 1.86 1.66 4.55 1.26 6.76.62 4.09-1.27 7.45-4.05 10.6-6.85 1.61 1.44 3.23 2.88 4.84 4.34-7.4 10.53-18.21 18.91-30.7 22.35-5.06 1.21-10.71 1.9-15.56-.4-5.02-2.7-5.57-9.18-4.97-14.23 1.54-10.57 5.62-20.53 9.49-30.41-5.6 12.28-12.03 24.57-21.94 33.97-6.16 5.71-13.58 10.39-21.97 11.79-7.28 1.26-15.63-.35-20.62-6.17-6.77-7.59-7.96-18.46-7.08-28.21 2.12-18.71 11.46-36.11 24.39-49.6m36.68-9.17c-9.24 3.01-16.17 10.45-21.58 18.23-6.97 10.43-12.04 22.56-12.43 35.23.08 5.08.6 11.14 5.04 14.42 5.06 3.58 12.19 2.59 17.08-.82 7.26-4.89 11.82-12.75 15.59-20.45 6.93-13.75 8.82-29.21 12.25-44.04-4.19-4.08-10.66-4.05-15.95-2.57ZM482.71 122.62c5.31-11.17 18.83-18.25 31.07-15.57 4.32.96 7.62 4.73 8.35 9.05 1.23 6.56-1.28 12.99-2.75 19.29-3.81 16.29-7.45 32.63-11.27 48.92-.61 2.25-.88 5.78 2.1 6.34 6.07.44 11.04-3.82 15.37-7.5 1.6 1.54 3.19 3.1 4.77 4.67-6.58 8.84-14.72 17.2-25.25 21.12-5.05 1.74-10.58 2.85-15.89 1.73-4.87-1.12-8.99-5.27-9.63-10.3-1.03-7.79 1.25-15.44 2.89-22.98 3.34-15.33 6.72-30.65 10.07-45.98.44-2.85 1.3-6.13-.32-8.74-2.64-2.56-6.45-.41-9.51-.05ZM638.46 174.66c5.17-1.07 11.06-.79 15.46 2.41 4.49 3.41 5.96 9.52 5.19 14.9-1.17 10.79-11.19 19.69-22.06 19.53-6.59.27-13.48-3.83-15.06-10.48-3.52-11.41 5.16-23.93 16.47-26.36Z"/></g></svg>
