<svg xmlns="http://www.w3.org/2000/svg" viewBox="0 0 1013 272"><g fill="#0f0f0f"><path d="M496.23 71.46c3.97-.12 7.94-.09 11.91-.07.01 7 .03 15.16-5.41 20.38-4.4 4.33-10.98 4.3-16.72 3.96-7.9-.25-15.12-4.47-23.08-4.19-3.95.04-8.24 1.45-10.41 4.97-2.65 3.77-2.13 8.58-2.32 12.93-3.96.12-7.91.13-11.86.02-.35-7.45.4-15.67 5.51-21.54 4.84-5.81 12.89-7.63 20.14-7.1 7.57.49 14.61 3.78 22.13 4.57 3.39.42 7.54-.82 8.98-4.19 1.29-3.07 1.03-6.49 1.13-9.74ZM383.51 110.31c8.84-3.67 19.12-3.7 28-.13 6.79 2.75 12.44 8.2 15.41 14.9 3.05 6.34 3.48 13.54 3.29 20.46-17.9.41-35.81-.02-53.71.23.79 6.64 3.63 13.4 9.48 17.09 7.14 4.24 16.53 4.52 23.89.65 4.27-2.34 7.04-6.48 9.78-10.35 3.05 1.53 6.1 3.06 9.1 4.67-3.97 8.78-11.74 15.9-21.27 17.99-9.25 1.9-19.43 1.27-27.68-3.65-8.02-4.68-13.32-13.3-14.69-22.4-1.31-8.52-.52-17.6 3.54-25.31 3.16-6.21 8.46-11.34 14.86-14.15m4.02 10.1c-6.01 2.98-9.59 9.37-10.46 15.86 13.54.06 27.08-.04 40.61.03-.18-7.35-5.14-14.22-12.09-16.63-5.82-1.93-12.47-1.92-18.06.74ZM466.18 107.99c11.11-1.75 23.29 1.37 31.2 9.62 11.89 12.45 12.55 33.62 1.9 47.02-11.66 14.53-35.43 16.21-49.74 4.74-13.81-11.27-15.91-33.35-5.92-47.76 5.08-7.58 13.61-12.36 22.56-13.62m1.29 10.73c-4.43.76-8.56 2.97-11.64 6.24-9.86 10.56-8.37 30.24 4.26 38.02 5.86 3.35 13.17 4.24 19.6 2.01 9.3-2.76 15.23-12.56 14.95-22.01.38-7.28-2.25-14.95-8.03-19.61-5.17-4.53-12.51-5.81-19.14-4.65ZM644.55 108.61c5.99-.15 11.98-.02 17.98-.07 6.18 17.54 11.52 35.38 17.46 53.02 6.05-17.59 11.4-35.41 17.53-52.97 5.89-.01 11.78-.08 17.67.08.15 16.1-.08 32.2-.35 48.3-.29 6.25.7 12.5.01 18.73-3.84.03-7.67.05-11.49 0-.03-14.21.07-28.42-.01-42.62-.01-2.65-.36-5.29-.7-7.9-5.64 16.86-11.34 33.7-17.17 50.5-3.9.09-7.79.1-11.67.05-4.92-12.93-8.96-26.18-13.56-39.22-1.32-3.38-1.76-7.23-4.22-10.05-.67 16.38-.12 32.79-.38 49.19-3.7.05-7.4.07-11.09.01.01-22.35.06-44.7-.01-67.05ZM302.65 108.63c9.78-.16 19.55-.12 29.33-.1 5.68.07 11.69.7 16.58 3.85 6.74 4.21 9.32 13.78 5.65 20.82-1.45 3.42-4.67 5.49-7.5 7.68 5.11 1.79 9.57 5.88 10.78 11.29 1.24 5.86.21 12.66-4.26 16.96-4.9 5.16-12.42 6.49-19.25 6.58-10.46 0-20.92.03-31.37-.09.03-22.33-.04-44.66.04-66.99m12.01 9.82c.01 6 0 12.01.05 18.02 6.14.02 12.28.16 18.42.03 3.44-.03 7.21-1.26 9.08-4.36 2.01-3.61 1.52-8.83-1.81-11.52-2.68-2.02-6.17-2.26-9.4-2.32-5.45-.04-10.89-.05-16.34.15m.04 27.88c-.07 6.49.02 12.98-.07 19.46 5.04.71 10.14.19 15.21.46 3.86.19 7.89-.11 11.38-1.91 5.71-3.13 5.87-12.58.42-16.04-2.82-1.9-6.35-2.01-9.63-2.09-5.77-.03-11.54-.08-17.31.12ZM515.79 108.63c3.91-.07 7.82-.07 11.74-.03.03 16.17.05 32.35.17 48.52 10.37-15.96 20.03-32.38 30.24-48.46 4.18-.12 8.36-.08 12.54-.03.1 22.33.02 44.66-.02 66.99-3.92.12-7.85.13-11.77.01.09-16.13.24-32.26-.16-48.38-9.91 15.97-19.64 32.08-29.74 47.91-4.11 1.34-8.7.36-12.99.5-.02-22.35-.12-44.69-.01-67.03ZM576.82 108.62c4.15-.09 8.3-.09 12.46-.03 6.45 16.86 12.37 33.92 18.73 50.82 6.37-16.9 12.58-33.86 18.87-50.78 4.01-.09 8.02-.09 12.03-.06-10.97 29.77-22.26 59.43-33.59 89.06-3.83.07-7.66.06-11.48-.04 2.13-6.85 5.1-13.4 7.4-20.18.96-2.77-.99-5.41-1.72-7.99-7.63-20.24-15.3-40.47-22.7-60.8Z"/></g></svg>
